<svg width="675" height="798" viewBox="0 0 675 798" fill="none" xmlns="http://www.w3.org/2000/svg">
<path d="M316 607.5L381 564.5L450.56 519.416L523 472.5C550.377 454.106 559.822 447.789 580.765 430.693C588.613 424.286 596.124 417.443 602.56 409.619C610.502 399.963 621.749 384.782 631 366.5C647.193 334.5 654.5 307 654.5 307C654.5 307 660.196 288 663 266.5C664.192 257.358 665 239.5 663 221C660.313 196.145 658.5 178.5 653 160.5L648.347 147.268C640.832 125.897 629.908 105.882 616 88V88V88C601.522 68.2566 582.759 52.049 561.121 40.5936L560 40V40C532.587 24.8072 502.519 15.0023 471.419 11.1149L462.5 10H435.5L415.5 12V12C364.285 14.995 319.463 49.016 303.425 97.7468L291 135.5L209.213 114.829C204.051 113.524 198.771 116.493 197.205 121.583L183.288 166.815C176.343 189.384 182.443 213.943 199.14 230.64V230.64C210.256 241.756 223.584 250.41 238.26 256.042L302 280.5" stroke="url(#paint0_linear_165_3)" stroke-width="20" stroke-linecap="round" stroke-linejoin="round"/>
<path d="M467 87.5L478.939 98.4445C500.835 118.516 508.736 149.665 499.053 177.746V177.746C496.398 185.447 491.765 192.313 485.618 197.658L449 229.5L426.929 250.52C413.813 263.011 403.632 278.482 397.272 295.441V295.441C391.838 309.931 389 325.427 389 340.902V340.902C389 355.509 394.089 369.66 403.392 380.922L407.481 385.871C419.842 400.835 438.239 409.5 457.648 409.5H460.359C473.914 409.5 487.263 406.184 499.242 399.842L500.683 399.08C510.186 394.049 518.982 387.783 526.843 380.446L530.787 376.766C540.187 367.992 547.944 357.611 553.695 346.111L563 327.5L579 289.5V289.5C585.617 270.971 589 251.443 589 231.768V229.5V225.683C589 208.477 584.889 191.52 577.009 176.224L572 166.5" stroke="url(#paint1_linear_165_3)" stroke-width="20" stroke-linecap="round" stroke-linejoin="round"/>
<path d="M351 124.875L357.076 116.802C362.125 110.095 370.977 107.496 378.85 110.409L380.509 111.023C389.816 114.467 394.905 124.493 392.19 134.039L389.5 143.5" stroke="url(#paint2_linear_165_3)" stroke-width="20" stroke-linecap="round" stroke-linejoin="round"/>
<path d="M315 607.5L301.506 544V544C292.645 514.124 276.582 486.883 254.728 464.669L252.918 462.829C242.518 452.257 248.461 434.352 263.118 432.097L279.822 429.527C287.727 428.311 294.016 422.262 295.54 414.411L303.921 371.214C304.999 365.66 300.744 360.5 295.086 360.5H288.241C283.015 360.5 278.056 358.196 274.686 354.202L273.981 353.366C261.088 338.085 240.763 331.247 221.255 335.626V335.626C212.546 337.582 204.35 330.749 204.707 321.83L205 314.5L209.908 304.332C212.31 299.358 206.492 294.464 202.002 297.682L186.515 308.781C169.707 320.827 161.327 341.466 164.98 361.818V361.818C165.655 365.576 165.655 369.424 164.98 373.182L163.389 382.044C160.557 397.828 163.451 414.104 171.552 427.943V427.943C178.667 440.098 178.972 455.072 172.358 467.507L158 494.5L146 527.5" stroke="url(#paint3_linear_165_3)" stroke-width="20" stroke-linecap="round" stroke-linejoin="round"/>
<path d="M263.835 366.006C265.201 371 251.407 379.123 246.413 380.488C241.419 381.854 236.263 378.912 234.897 373.917C233.532 368.923 236.474 363.767 241.468 362.402C246.462 361.036 262.47 361.011 263.835 366.006Z" fill="url(#paint4_linear_165_3)"/>
<path d="M146 529.5L85 434.5L56.0484 384.703C42.0643 360.651 30.9465 335.042 22.9223 308.402L18.6532 294.229C12.9186 275.19 10.1488 255.381 10.4412 235.5L10.6296 222.684C10.875 206 13.7673 189.462 19.1986 173.685L20.9251 168.67C28.1594 147.656 41.2133 129.129 58.5673 115.246V115.246C82.7077 95.9339 114.644 89.3673 144.446 97.5885L155 100.5" stroke="url(#paint5_linear_165_3)" stroke-width="20" stroke-linecap="round" stroke-linejoin="round"/>
<path d="M205.785 147H201L208.676 126L230 129.111C226.731 139.744 216.908 147 205.785 147Z" fill="#992345" stroke="url(#paint6_linear_165_3)" stroke-width="20" stroke-linecap="round" stroke-linejoin="round"/>
<path d="M62.6078 779.5V674.5H106.558C113.458 674.5 119.708 676.1 125.308 679.3C131.008 682.4 135.508 686.75 138.808 692.35C142.208 697.95 143.908 704.45 143.908 711.85C143.908 719.15 142.208 725.65 138.808 731.35C135.508 736.95 131.008 741.35 125.308 744.55C119.708 747.65 113.458 749.2 106.558 749.2H84.0579V779.5H62.6078ZM84.0579 730.3H104.008C107.408 730.3 110.508 729.6 113.308 728.2C116.108 726.7 118.308 724.6 119.908 721.9C121.608 719.1 122.458 715.75 122.458 711.85C122.458 707.95 121.608 704.65 119.908 701.95C118.308 699.15 116.108 697.05 113.308 695.65C110.508 694.15 107.408 693.4 104.008 693.4H84.0579V730.3ZM192.986 779.5C184.286 779.5 176.686 777.85 170.186 774.55C163.786 771.15 158.786 766.55 155.186 760.75C151.686 754.95 149.936 748.45 149.936 741.25C149.936 733.15 151.586 726.1 154.886 720.1C158.186 714.1 162.686 709.45 168.386 706.15C174.086 702.85 180.536 701.2 187.736 701.2C196.336 701.2 203.286 703 208.586 706.6C213.986 710.2 217.936 715.05 220.436 721.15C222.936 727.15 224.186 733.85 224.186 741.25C224.186 742.25 224.136 743.45 224.036 744.85C223.936 746.15 223.786 747.15 223.586 747.85H171.836C172.636 750.95 173.986 753.55 175.886 755.65C177.886 757.75 180.336 759.35 183.236 760.45C186.236 761.45 189.586 761.95 193.286 761.95H214.586V779.5H192.986ZM171.686 734.05H203.636C203.436 732.15 203.086 730.4 202.586 728.8C202.086 727.1 201.386 725.6 200.486 724.3C199.586 723 198.536 721.9 197.336 721C196.136 720.1 194.736 719.4 193.136 718.9C191.536 718.4 189.786 718.15 187.886 718.15C185.386 718.15 183.136 718.6 181.136 719.5C179.236 720.4 177.636 721.6 176.336 723.1C175.036 724.6 173.986 726.3 173.186 728.2C172.486 730.1 171.986 732.05 171.686 734.05ZM265.214 779.5C258.414 779.5 253.064 777.55 249.164 773.65C245.364 769.75 243.464 764.45 243.464 757.75V683.8H264.014V757.15C264.014 758.45 264.464 759.6 265.364 760.6C266.364 761.5 267.514 761.95 268.814 761.95H285.464V779.5H265.214ZM230.414 720.55V703H285.464V720.55H230.414ZM301.213 779.5V703H321.913V779.5H301.213ZM311.563 693.85C308.063 693.85 305.013 692.6 302.413 690.1C299.913 687.5 298.663 684.45 298.663 680.95C298.663 677.45 299.913 674.45 302.413 671.95C305.013 669.35 308.063 668.05 311.563 668.05C315.063 668.05 318.063 669.35 320.563 671.95C323.163 674.45 324.463 677.45 324.463 680.95C324.463 684.45 323.163 687.5 320.563 690.1C318.063 692.6 315.063 693.85 311.563 693.85ZM346.304 779.5V720.55H332.954V703H346.304V691.75C346.304 684.95 348.204 679.65 352.004 675.85C355.904 671.95 361.254 670 368.054 670H385.754V687.55H371.654C370.354 687.55 369.204 688 368.204 688.9C367.304 689.8 366.854 690.95 366.854 692.35V703H420.554V779.5H399.854V720.55H366.854V779.5H346.304ZM410.204 693.4C406.704 693.4 403.654 692.15 401.054 689.65C398.554 687.05 397.304 684 397.304 680.5C397.304 677 398.554 674 401.054 671.5C403.654 668.9 406.704 667.6 410.204 667.6C413.704 667.6 416.704 668.9 419.204 671.5C421.804 674 423.104 677 423.104 680.5C423.104 684 421.804 687.05 419.204 689.65C416.704 692.15 413.704 693.4 410.204 693.4ZM478.484 779.5C469.784 779.5 462.184 777.85 455.684 774.55C449.284 771.15 444.284 766.55 440.684 760.75C437.184 754.95 435.434 748.45 435.434 741.25C435.434 733.15 437.084 726.1 440.384 720.1C443.684 714.1 448.184 709.45 453.884 706.15C459.584 702.85 466.034 701.2 473.234 701.2C481.834 701.2 488.784 703 494.084 706.6C499.484 710.2 503.434 715.05 505.934 721.15C508.434 727.15 509.684 733.85 509.684 741.25C509.684 742.25 509.634 743.45 509.534 744.85C509.434 746.15 509.284 747.15 509.084 747.85H457.334C458.134 750.95 459.484 753.55 461.384 755.65C463.384 757.75 465.834 759.35 468.734 760.45C471.734 761.45 475.084 761.95 478.784 761.95H500.084V779.5H478.484ZM457.184 734.05H489.134C488.934 732.15 488.584 730.4 488.084 728.8C487.584 727.1 486.884 725.6 485.984 724.3C485.084 723 484.034 721.9 482.834 721C481.634 720.1 480.234 719.4 478.634 718.9C477.034 718.4 475.284 718.15 473.384 718.15C470.884 718.15 468.634 718.6 466.634 719.5C464.734 720.4 463.134 721.6 461.834 723.1C460.534 724.6 459.484 726.3 458.684 728.2C457.984 730.1 457.484 732.05 457.184 734.05ZM560.013 781.3C553.613 781.3 547.863 780.3 542.763 778.3C537.763 776.2 533.563 773.3 530.163 769.6C526.763 765.8 524.163 761.4 522.363 756.4C520.563 751.3 519.663 745.75 519.663 739.75C519.663 732.15 521.163 725.5 524.163 719.8C527.263 714 531.563 709.45 537.063 706.15C542.663 702.85 549.163 701.2 556.563 701.2C559.763 701.2 562.813 701.65 565.713 702.55C568.713 703.45 571.413 704.75 573.813 706.45C576.213 708.15 578.163 710.15 579.663 712.45H579.813V670H600.363V739.75C600.363 748.15 598.713 755.5 595.413 761.8C592.113 768 587.463 772.8 581.463 776.2C575.463 779.6 568.313 781.3 560.013 781.3ZM560.013 763.75C564.113 763.75 567.613 762.75 570.513 760.75C573.413 758.75 575.613 756.05 577.113 752.65C578.713 749.25 579.513 745.45 579.513 741.25C579.513 737.05 578.713 733.25 577.113 729.85C575.613 726.45 573.413 723.75 570.513 721.75C567.613 719.75 564.113 718.75 560.013 718.75C556.013 718.75 552.513 719.75 549.513 721.75C546.613 723.75 544.363 726.45 542.763 729.85C541.263 733.25 540.513 737.05 540.513 741.25C540.513 745.45 541.263 749.25 542.763 752.65C544.363 756.05 546.613 758.75 549.513 760.75C552.513 762.75 556.013 763.75 560.013 763.75Z" fill="url(#paint7_linear_165_3)"/>
<defs>
<linearGradient id="paint0_linear_165_3" x1="409" y1="1.5" x2="409" y2="607.5" gradientUnits="userSpaceOnUse">
<stop offset="0.28125" stop-color="#992345"/>
<stop offset="0.588542" stop-color="#83256F"/>
</linearGradient>
<linearGradient id="paint1_linear_165_3" x1="489" y1="87.5" x2="489" y2="409.5" gradientUnits="userSpaceOnUse">
<stop stop-color="#992345"/>
<stop offset="0.598958" stop-color="#90236F"/>
<stop offset="1" stop-color="#872399"/>
</linearGradient>
<linearGradient id="paint2_linear_165_3" x1="374" y1="105.5" x2="374" y2="143.5" gradientUnits="userSpaceOnUse">
<stop stop-color="#992345"/>
<stop offset="0.598958" stop-color="#90236F"/>
<stop offset="1" stop-color="#872399"/>
</linearGradient>
<linearGradient id="paint3_linear_165_3" x1="230.5" y1="285.5" x2="230.5" y2="607.5" gradientUnits="userSpaceOnUse">
<stop stop-color="#992345"/>
<stop offset="0.598958" stop-color="#90236F"/>
<stop offset="1" stop-color="#872399"/>
</linearGradient>
<linearGradient id="paint4_linear_165_3" x1="246.894" y1="360.918" x2="251.839" y2="379.005" gradientUnits="userSpaceOnUse">
<stop stop-color="#992345"/>
<stop offset="0.484375" stop-color="#83256F"/>
<stop offset="1" stop-color="#872399"/>
</linearGradient>
<linearGradient id="paint5_linear_165_3" x1="82.5" y1="84.5" x2="82.5" y2="529.5" gradientUnits="userSpaceOnUse">
<stop stop-color="#992345"/>
<stop offset="0.598958" stop-color="#90236F"/>
<stop offset="1" stop-color="#872399"/>
</linearGradient>
<linearGradient id="paint6_linear_165_3" x1="215.5" y1="126" x2="215.5" y2="147" gradientUnits="userSpaceOnUse">
<stop stop-color="#992345"/>
<stop offset="1" stop-color="#83256F"/>
</linearGradient>
<linearGradient id="paint7_linear_165_3" x1="337.108" y1="607.5" x2="337.108" y2="797.5" gradientUnits="userSpaceOnUse">
<stop stop-color="#992345"/>
<stop offset="0.5" stop-color="#8E245A"/>
<stop offset="1" stop-color="#83256F"/>
</linearGradient>
</defs>
</svg>
