<svg width="1920" height="1080" viewBox="0 0 1920 1080" fill="none" xmlns="http://www.w3.org/2000/svg">
<rect width="1920" height="1080" fill="#1E1E1E"/>
<rect width="1920" height="1080" fill="white"/>
<path d="M1133.83 436C1330.99 196.527 948.801 -1.45124 834 212.025C704.224 0.0485764 424.182 141.5 474.682 279" stroke="black" stroke-width="7"/>
<line x1="1135.58" y1="434.37" x2="834.575" y2="761.37" stroke="black" stroke-width="7"/>
<path d="M841.065 234.268C871.869 234.578 863.661 195.426 846.036 196.79" stroke="black" stroke-width="3"/>
<path d="M950.037 174.378C964.772 153.322 999.694 173.557 984.651 193.662" stroke="black" stroke-width="3"/>
<path d="M700.906 221.217C705.794 203.339 734.42 209.432 729.092 226.723" stroke="black" stroke-width="3"/>
<path d="M803.252 531.337C818.79 525.837 833.602 545.807 818.176 550.767" stroke="black" stroke-width="3"/>
<path d="M833.5 213C852.025 274.797 871.556 296.909 922 315" stroke="black" stroke-width="3"/>
<path d="M752 285C759.768 284.692 763.535 284.946 769.359 285.383" stroke="black" stroke-width="3"/>
<path d="M705.005 494C715.817 505.325 720.365 511.242 727.323 520.435" stroke="black" stroke-width="3"/>
<path d="M1064 190.5C1085.5 211.5 1087 233.5 1071 260C1055 286.5 1029 322.5 1017 375.5C1005 428.5 1035 451 1075.5 443.5C1116 436 1165.5 344.5 1149.5 309.5" stroke="black" stroke-width="3"/>
<path d="M834.244 758.884C826.979 742.335 816.071 732.313 812.547 713.522C811.636 694.766 815.941 686.105 829.5 672.919C838.089 664.662 844.664 658.661 854.977 652.131C865.396 644.89 870.714 642.988 879.298 634.11C887.882 625.232 903.665 606.898 912.719 585.212C915.819 578.555 917.222 574.831 918.732 568.217C920.161 561.655 920.707 558.205 921.667 552.103C924.613 533.368 923.496 522.74 921.087 504.18C912.423 518.443 903.572 526.917 892.031 528.351C884.03 529.345 871.953 529.72 856.727 523.363C843.456 517.327 834.083 510.115 826.087 504.609C818.091 499.103 798.203 493.576 781.672 494.191C769.01 483.54 759.808 466.098 754.003 463.132C748.197 460.166 734.153 467.848 718.836 479.875C703.52 491.902 701.112 498.109 695.236 511.742C693.609 526.1 694.435 533.758 697.863 546.975C704.423 570.187 701.799 581.67 683.678 588.734" stroke="black" stroke-width="3"/>
<path d="M660 566.5C660 566.5 669.5 565 667 557.5C664.5 550 663.5 548.5 652 524.5C640.5 500.5 660.5 445 681.5 436C702.5 427 718.5 389.5 723.5 345C728.5 300.5 726 301 726 301C762.055 295.697 775.455 288.72 772.5 260.5C767.888 224.674 757.105 209.142 726 194.5L692.5 180L659.5 173C656.374 141.499 647 129 633 106L616.5 108L600 111C609.813 122.106 614.507 128.604 619 141.5C622.802 156.082 623.051 164.004 622.5 178L609 142.5C603.65 130.534 599.532 124.238 589.5 114L568 121.5C575 139 576 142.5 585 161C594 179.5 594.5 184.5 609 202C603.208 215.955 598.825 231.043 598.5 243.5C599.287 256.856 601.462 264.024 607 276.5C556.523 263.114 527.016 264.95 473 279" stroke="black" stroke-width="3"/>
</svg>
