<svg width="571" height="191" viewBox="0 0 571 191" fill="none" xmlns="http://www.w3.org/2000/svg">
<path d="M10.6078 172.5V67.5H54.5578C61.4579 67.5 67.7079 69.1 73.3079 72.3C79.0079 75.4 83.5079 79.75 86.8079 85.35C90.2079 90.95 91.9079 97.45 91.9079 104.85C91.9079 112.15 90.2079 118.65 86.8079 124.35C83.5079 129.95 79.0079 134.35 73.3079 137.55C67.7079 140.65 61.4579 142.2 54.5578 142.2H32.0579V172.5H10.6078ZM32.0579 123.3H52.0079C55.4079 123.3 58.5079 122.6 61.3079 121.2C64.1079 119.7 66.3079 117.6 67.9079 114.9C69.6079 112.1 70.4579 108.75 70.4579 104.85C70.4579 100.95 69.6079 97.65 67.9079 94.95C66.3079 92.15 64.1079 90.05 61.3079 88.65C58.5079 87.15 55.4079 86.4 52.0079 86.4H32.0579V123.3ZM140.986 172.5C132.286 172.5 124.686 170.85 118.186 167.55C111.786 164.15 106.786 159.55 103.186 153.75C99.686 147.95 97.936 141.45 97.936 134.25C97.936 126.15 99.586 119.1 102.886 113.1C106.186 107.1 110.686 102.45 116.386 99.15C122.086 95.85 128.536 94.2 135.736 94.2C144.336 94.2 151.286 96 156.586 99.6C161.986 103.2 165.936 108.05 168.436 114.15C170.936 120.15 172.186 126.85 172.186 134.25C172.186 135.25 172.136 136.45 172.036 137.85C171.936 139.15 171.786 140.15 171.586 140.85H119.836C120.636 143.95 121.986 146.55 123.886 148.65C125.886 150.75 128.336 152.35 131.236 153.45C134.236 154.45 137.586 154.95 141.286 154.95H162.586V172.5H140.986ZM119.686 127.05H151.636C151.436 125.15 151.086 123.4 150.586 121.8C150.086 120.1 149.386 118.6 148.486 117.3C147.586 116 146.536 114.9 145.336 114C144.136 113.1 142.736 112.4 141.136 111.9C139.536 111.4 137.786 111.15 135.886 111.15C133.386 111.15 131.136 111.6 129.136 112.5C127.236 113.4 125.636 114.6 124.336 116.1C123.036 117.6 121.986 119.3 121.186 121.2C120.486 123.1 119.986 125.05 119.686 127.05ZM213.214 172.5C206.414 172.5 201.064 170.55 197.164 166.65C193.364 162.75 191.464 157.45 191.464 150.75V76.8H212.014V150.15C212.014 151.45 212.464 152.6 213.364 153.6C214.364 154.5 215.514 154.95 216.814 154.95H233.464V172.5H213.214ZM178.414 113.55V96H233.464V113.55H178.414ZM249.213 172.5V96H269.913V172.5H249.213ZM259.563 86.85C256.063 86.85 253.013 85.6 250.413 83.1C247.913 80.5 246.663 77.45 246.663 73.95C246.663 70.45 247.913 67.45 250.413 64.95C253.013 62.35 256.063 61.05 259.563 61.05C263.063 61.05 266.063 62.35 268.563 64.95C271.163 67.45 272.463 70.45 272.463 73.95C272.463 77.45 271.163 80.5 268.563 83.1C266.063 85.6 263.063 86.85 259.563 86.85ZM294.304 172.5V113.55H280.954V96H294.304V84.75C294.304 77.95 296.204 72.65 300.004 68.85C303.904 64.95 309.254 63 316.054 63H333.754V80.55H319.654C318.354 80.55 317.204 81 316.204 81.9C315.304 82.8 314.854 83.95 314.854 85.35V96H368.554V172.5H347.854V113.55H314.854V172.5H294.304ZM358.204 86.4C354.704 86.4 351.654 85.15 349.054 82.65C346.554 80.05 345.304 77 345.304 73.5C345.304 70 346.554 67 349.054 64.5C351.654 61.9 354.704 60.6 358.204 60.6C361.704 60.6 364.704 61.9 367.204 64.5C369.804 67 371.104 70 371.104 73.5C371.104 77 369.804 80.05 367.204 82.65C364.704 85.15 361.704 86.4 358.204 86.4ZM426.484 172.5C417.784 172.5 410.184 170.85 403.684 167.55C397.284 164.15 392.284 159.55 388.684 153.75C385.184 147.95 383.434 141.45 383.434 134.25C383.434 126.15 385.084 119.1 388.384 113.1C391.684 107.1 396.184 102.45 401.884 99.15C407.584 95.85 414.034 94.2 421.234 94.2C429.834 94.2 436.784 96 442.084 99.6C447.484 103.2 451.434 108.05 453.934 114.15C456.434 120.15 457.684 126.85 457.684 134.25C457.684 135.25 457.634 136.45 457.534 137.85C457.434 139.15 457.284 140.15 457.084 140.85H405.334C406.134 143.95 407.484 146.55 409.384 148.65C411.384 150.75 413.834 152.35 416.734 153.45C419.734 154.45 423.084 154.95 426.784 154.95H448.084V172.5H426.484ZM405.184 127.05H437.134C436.934 125.15 436.584 123.4 436.084 121.8C435.584 120.1 434.884 118.6 433.984 117.3C433.084 116 432.034 114.9 430.834 114C429.634 113.1 428.234 112.4 426.634 111.9C425.034 111.4 423.284 111.15 421.384 111.15C418.884 111.15 416.634 111.6 414.634 112.5C412.734 113.4 411.134 114.6 409.834 116.1C408.534 117.6 407.484 119.3 406.684 121.2C405.984 123.1 405.484 125.05 405.184 127.05ZM508.013 174.3C501.613 174.3 495.863 173.3 490.763 171.3C485.763 169.2 481.563 166.3 478.163 162.6C474.763 158.8 472.163 154.4 470.363 149.4C468.563 144.3 467.663 138.75 467.663 132.75C467.663 125.15 469.163 118.5 472.163 112.8C475.263 107 479.563 102.45 485.063 99.15C490.663 95.85 497.163 94.2 504.563 94.2C507.763 94.2 510.813 94.65 513.713 95.55C516.713 96.45 519.413 97.75 521.813 99.45C524.213 101.15 526.163 103.15 527.663 105.45H527.813V63H548.363V132.75C548.363 141.15 546.713 148.5 543.413 154.8C540.113 161 535.463 165.8 529.463 169.2C523.463 172.6 516.313 174.3 508.013 174.3ZM508.013 156.75C512.113 156.75 515.613 155.75 518.513 153.75C521.413 151.75 523.613 149.05 525.113 145.65C526.713 142.25 527.513 138.45 527.513 134.25C527.513 130.05 526.713 126.25 525.113 122.85C523.613 119.45 521.413 116.75 518.513 114.75C515.613 112.75 512.113 111.75 508.013 111.75C504.013 111.75 500.513 112.75 497.513 114.75C494.613 116.75 492.363 119.45 490.763 122.85C489.263 126.25 488.513 130.05 488.513 134.25C488.513 138.45 489.263 142.25 490.763 145.65C492.363 149.05 494.613 151.75 497.513 153.75C500.513 155.75 504.013 156.75 508.013 156.75Z" fill="url(#paint0_linear_140_17)"/>
<defs>
<linearGradient id="paint0_linear_140_17" x1="285.108" y1="0.5" x2="285.108" y2="190.5" gradientUnits="userSpaceOnUse">
<stop stop-color="#992345"/>
<stop offset="0.5" stop-color="#8E245A"/>
<stop offset="1" stop-color="#83256F"/>
</linearGradient>
</defs>
</svg>
